<?xml version="1.0" encoding="UTF-8"?>
<svg version="1.1" xmlns="http://www.w3.org/2000/svg" width="97" height="142">
<path d="M0 0 C1.98 0.33 3.96 0.66 6 1 C6.99 0.67 7.98 0.34 9 0 C8.76990234 0.77730469 8.76990234 0.77730469 8.53515625 1.5703125 C7.33462224 7.02091218 7.09822251 12.49271603 8 18 C9.78440863 20.14388901 11.48112224 21.19430848 13.890625 22.57421875 C18.5235671 25.70574443 20.92677833 31.63389163 22 37 C22.71174123 45.25619829 20.38273466 52.27945798 15.3125 58.875 C11.32278325 63.10530269 6.58938565 65.63476427 0.7734375 66.2265625 C-8.95806261 65.77953246 -16.99487441 58.43174042 -24.62207031 52.984375 C-30.36050521 48.91715811 -35.09852994 48.34062388 -42 49 C-45.03465702 50.31227434 -45.03465702 50.31227434 -47 52 C-45.49567295 48.17080388 -43.44343806 46.21910453 -40 44 C-33.98652553 42.2653439 -29.44816008 43.23191867 -24 46 C-20.35363813 48.34063547 -16.89056856 50.92388595 -13.4296875 53.52734375 C-7.35568575 58.01250581 -1.76820674 61.35438899 6 61 C10.70942704 59.40057195 13.29581882 57.16027873 16 53 C16 52.01 16 51.02 16 50 C16.66 50 17.32 50 18 50 C18.81609514 36.69396245 18.81609514 36.69396245 13 25 C11.35 24.01 9.7 23.02 8 22 C8 33.22 8 44.44 8 56 C3 53 3 53 1 51 C0.82504394 48.49079154 0.76830431 46.09375059 0.8046875 43.5859375 C0.8075174 42.85629791 0.81034729 42.12665833 0.81326294 41.37490845 C0.82446998 39.04143972 0.8495749 36.70835297 0.875 34.375 C0.88502915 32.79427637 0.89415511 31.21354673 0.90234375 29.6328125 C0.92441095 25.75506086 0.95894385 21.87759522 1 18 C-3.29 18.66 -7.58 19.32 -12 20 C-12.33 26.27 -12.66 32.54 -13 39 C-19 34 -19 34 -19.75708008 30.6184082 C-19.76118896 29.35859131 -19.76529785 28.09877441 -19.76953125 26.80078125 C-19.78086594 26.12452194 -19.79220062 25.44826263 -19.80387878 24.75151062 C-19.83447298 22.60438138 -19.8247894 20.45977176 -19.8125 18.3125 C-19.82667768 16.15533037 -19.84904799 13.99841598 -19.87467957 11.84135437 C-19.89364262 9.89212462 -19.89226751 7.94272874 -19.88989258 5.9934082 C-19.7904327 3.07410659 -19.7904327 3.07410659 -21 1 C-18.03 1 -15.06 1 -12 1 C-12.33 6.28 -12.66 11.56 -13 17 C-11.4325 16.649375 -9.865 16.29875 -8.25 15.9375 C-4.43186434 15.08344334 -2.94451397 15.01387151 1 16 C0.67 10.72 0.34 5.44 0 0 Z " fill="#EEB976" transform="translate(66,50)"/>
<path d="M0 0 C4.67879749 -0.3743038 8.07780011 -0.44402217 12.375 1.625 C15.92123853 4.83350153 17.81720493 7.51804923 18.17578125 12.38671875 C18.18620811 14.60068935 18.13257751 16.79037478 18 19 C17.01 19.33 16.02 19.66 15 20 C14.360625 20.639375 13.72125 21.27875 13.0625 21.9375 C10.49273226 24.50726774 8.43458656 25.85098485 4.78125 26.23046875 C3.65203125 26.20919922 3.65203125 26.20919922 2.5 26.1875 C1.7471875 26.18105469 0.994375 26.17460938 0.21875 26.16796875 C-2 26 -2 26 -6 25 C-6 35.56 -6 46.12 -6 57 C-12 53 -12 53 -13 51 C-13.08527628 48.96767366 -13.10716135 46.93252994 -13.09765625 44.8984375 C-13.09443359 43.68671875 -13.09121094 42.475 -13.08789062 41.2265625 C-13.07951172 39.95554688 -13.07113281 38.68453125 -13.0625 37.375 C-13.05798828 36.09625 -13.05347656 34.8175 -13.04882812 33.5 C-13.03701203 30.33328708 -13.02053815 27.16666644 -13 24 C-20.08554051 21.3973585 -20.08554051 21.3973585 -27.5625 20.8125 C-28.83287109 20.85310547 -28.83287109 20.85310547 -30.12890625 20.89453125 C-31.05509766 20.94673828 -31.05509766 20.94673828 -32 21 C-32.33 21.66 -32.66 22.32 -33 23 C-33.804375 23.103125 -34.60875 23.20625 -35.4375 23.3125 C-36.7059375 23.6528125 -36.7059375 23.6528125 -38 24 C-39.23290201 26.45704762 -39.23290201 26.45704762 -40 29 C-40.66 29.33 -41.32 29.66 -42 30 C-41.67 30.99 -41.34 31.98 -41 33 C-41.185625 33.598125 -41.37125 34.19625 -41.5625 34.8125 C-42.18954421 37.94772107 -41.12651768 40.05853716 -40 43 C-39.67 43.99 -39.34 44.98 -39 46 C-33.55884303 52.19687321 -28.87252948 53.19940378 -21 54 C-20.67 54.99 -20.34 55.98 -20 57 C-24.83972671 57.93398235 -28.59096471 58.55940911 -33.1953125 56.2890625 C-39.28660467 51.93813952 -43.57180479 46.34500393 -45 39 C-45.79907218 32.34106514 -43.59075653 27.47427997 -40 22 C-38.10577048 20.09246208 -36.16509913 18.61123656 -34 17 C-34 16.34 -34 15.68 -34 15 C-25.45831931 14.44050126 -18.33616049 14.85031812 -10.1875 17.5 C-2.5699424 19.96535907 3.66549556 21.39323357 11.5 18.875 C14.59454789 16.55408908 15.17348576 14.71931406 16 11 C15.34 10.67 14.68 10.34 14 10 C13.8453125 9.0409375 13.8453125 9.0409375 13.6875 8.0625 C13.17685681 5.82056134 13.17685681 5.82056134 11 4.6875 C6.84919256 3.7362733 3.16731648 4.32814506 -1 5 C-0.67 3.35 -0.34 1.7 0 0 Z " fill="#D7B97D" transform="translate(51,24)"/>
<path d="M0 0 C4.67879749 -0.3743038 8.07780011 -0.44402217 12.375 1.625 C15.92123853 4.83350153 17.81720493 7.51804923 18.17578125 12.38671875 C18.18620811 14.60068935 18.13257751 16.79037478 18 19 C17.01 19.33 16.02 19.66 15 20 C14.360625 20.639375 13.72125 21.27875 13.0625 21.9375 C10.49273226 24.50726774 8.43458656 25.85098485 4.78125 26.23046875 C3.65203125 26.20919922 3.65203125 26.20919922 2.5 26.1875 C1.7471875 26.18105469 0.994375 26.17460938 0.21875 26.16796875 C-2 26 -2 26 -6 25 C-6 35.56 -6 46.12 -6 57 C-11 52 -11 52 -11.56762695 48.86206055 C-11.54144287 47.71519775 -11.51525879 46.56833496 -11.48828125 45.38671875 C-11.47216797 44.13955078 -11.45605469 42.89238281 -11.43945312 41.60742188 C-11.39755859 40.31384766 -11.35566406 39.02027344 -11.3125 37.6875 C-11.28994141 36.37458984 -11.26738281 35.06167969 -11.24414062 33.70898438 C-11.18527725 30.4714987 -11.10308804 27.23633 -11 24 C-9.02 23.67 -7.04 23.34 -5 23 C-5 22.34 -5 21.68 -5 21 C-4.13117187 20.96261719 -3.26234375 20.92523438 -2.3671875 20.88671875 C6.34838611 20.65246752 6.34838611 20.65246752 14 17 C15.43968727 13.93638223 15.43968727 13.93638223 16 11 C15.34 10.67 14.68 10.34 14 10 C13.896875 9.360625 13.79375 8.72125 13.6875 8.0625 C13.17685681 5.82056134 13.17685681 5.82056134 11 4.6875 C6.84919256 3.7362733 3.16731648 4.32814506 -1 5 C-0.67 3.35 -0.34 1.7 0 0 Z " fill="#F7C279" transform="translate(51,24)"/>
<path d="M0 0 C2.73631397 1.95973272 5.44954731 3.94938654 8.1628418 5.94091797 C14.19328878 10.11054131 19.59042297 13.55253641 27.1628418 12.94091797 C32.44059066 11.21550007 34.91696463 8.23693187 38.1628418 3.94091797 C38.6578418 5.42591797 38.6578418 5.42591797 39.1628418 6.94091797 C36.41801824 12.08447863 31.8503747 15.28705916 26.5144043 17.33935547 C20.42734622 18.89650986 15.76027923 17.53362007 10.4128418 14.44091797 C5.7037202 11.40253653 1.10148343 8.18256666 -3.45922852 4.92529297 C-9.19766342 0.85807608 -13.93568815 0.28154185 -20.8371582 0.94091797 C-23.87181523 2.25319231 -23.87181523 2.25319231 -25.8371582 3.94091797 C-24.3411486 0.13289352 -22.17652669 -1.7533276 -18.8371582 -4.05908203 C-12.01039423 -6.3629382 -5.72214381 -3.92681164 0 0 Z " fill="#F4C781" transform="translate(44.837158203125,98.05908203125)"/>
<path d="M0 0 C2.97 0 5.94 0 9 0 C8.67 0.66 8.34 1.32 8 2 C7.84339117 4.62380313 7.7417092 7.22524852 7.68359375 9.8515625 C7.66281265 10.62559418 7.64203156 11.39962585 7.62062073 12.19711304 C7.55516552 14.67298392 7.49625913 17.14896202 7.4375 19.625 C7.39431093 21.30209448 7.35069652 22.97917807 7.30664062 24.65625 C7.19948829 28.77072308 7.09820955 32.88530414 7 37 C4.54199219 35.44384766 4.54199219 35.44384766 2 33 C1.35644531 29.73193359 1.35644531 29.73193359 1.328125 25.8984375 C1.31537537 25.22076324 1.30262573 24.54308899 1.28948975 23.84487915 C1.25325553 21.68782458 1.25048133 19.53233179 1.25 17.375 C1.22838031 15.21110938 1.19992632 13.04745415 1.16766357 10.88369751 C1.14180994 8.92567883 1.13347245 6.96745236 1.12597656 5.00927734 C1.20890708 2.07663762 1.20890708 2.07663762 0 0 Z " fill="#F5C67B" transform="translate(45,51)"/>
<path d="M0 0 C4.73628411 0.11990593 8.95187405 1.34305104 13.4375 2.78125 C14.21222656 3.01972656 14.98695312 3.25820313 15.78515625 3.50390625 C17.67237758 4.08638197 19.55540951 4.68240303 21.4375 5.28125 C20.4475 5.61125 19.4575 5.94125 18.4375 6.28125 C18.4375 6.94125 18.4375 7.60125 18.4375 8.28125 C16.4575 8.61125 14.4775 8.94125 12.4375 9.28125 C12.9325 23.63625 12.9325 23.63625 13.4375 38.28125 C12.7775 38.28125 12.1175 38.28125 11.4375 38.28125 C10.05441219 35.51507437 10.32539804 33.27107 10.33984375 30.1796875 C10.34306641 28.96796875 10.34628906 27.75625 10.34960938 26.5078125 C10.35798828 25.23679687 10.36636719 23.96578125 10.375 22.65625 C10.37951172 21.3775 10.38402344 20.09875 10.38867188 18.78125 C10.40048797 15.61453708 10.41696185 12.44791644 10.4375 9.28125 C9.0332088 8.80405263 7.6280963 8.32927186 6.22265625 7.85546875 C5.04908569 7.45847778 5.04908569 7.45847778 3.85180664 7.0534668 C0.41554389 5.95437699 -3.05216639 5.11096522 -6.5625 4.28125 C-4.79886178 0.75397356 -4.01601306 0.31705366 0 0 Z " fill="#D6AA70" transform="translate(27.5625,38.71875)"/>
<path d="M0 0 C2.97 0.495 2.97 0.495 6 1 C6.99 0.67 7.98 0.34 9 0 C8.83757812 0.51304688 8.67515625 1.02609375 8.5078125 1.5546875 C7.83890345 4.77574185 7.86813612 7.8371999 7.875 11.125 C7.87242188 12.36507812 7.86984375 13.60515625 7.8671875 14.8828125 C7.78331189 17.90723573 7.78331189 17.90723573 9 20 C8.01 19.67 7.02 19.34 6 19 C6 13.72 6 8.44 6 3 C4.68 3 3.36 3 2 3 C2 7.62 2 12.24 2 17 C-0.47395833 17.48828125 -2.94791667 17.9765625 -5.421875 18.46484375 C-7.62650703 18.92247191 -9.81560057 19.45390014 -12 20 C-12.33 26.27 -12.66 32.54 -13 39 C-13.33 39 -13.66 39 -14 39 C-14 27.12 -14 15.24 -14 3 C-13.67 3 -13.34 3 -13 3 C-13 7.62 -13 12.24 -13 17 C-11.4325 16.649375 -9.865 16.29875 -8.25 15.9375 C-4.43186434 15.08344334 -2.94451397 15.01387151 1 16 C0.67 10.72 0.34 5.44 0 0 Z " fill="#B2986A" transform="translate(66,50)"/>
<path d="M0 0 C4.67879749 -0.3743038 8.07780011 -0.44402217 12.375 1.625 C15.92123853 4.83350153 17.81720493 7.51804923 18.17578125 12.38671875 C18.18620811 14.60068935 18.13257751 16.79037478 18 19 C17.01 19.33 16.02 19.66 15 20 C14.360625 20.639375 13.72125 21.27875 13.0625 21.9375 C10.42859205 24.57140795 8.39408489 25.88459562 4.640625 26.1953125 C3.45726562 26.16050781 3.45726562 26.16050781 2.25 26.125 C1.45078125 26.10695313 0.6515625 26.08890625 -0.171875 26.0703125 C-0.77515625 26.04710938 -1.3784375 26.02390625 -2 26 C1.44450737 23.70366176 3.93812283 23.45983515 8 23 C8 22.01 8 21.02 8 20 C9.423125 19.443125 9.423125 19.443125 10.875 18.875 C14.25553808 17.26004095 14.25553808 17.26004095 15.375 13.8125 C15.684375 12.4203125 15.684375 12.4203125 16 11 C15.34 10.67 14.68 10.34 14 10 C13.896875 9.360625 13.79375 8.72125 13.6875 8.0625 C13.17685681 5.82056134 13.17685681 5.82056134 11 4.6875 C6.84919256 3.7362733 3.16731648 4.32814506 -1 5 C-0.67 3.35 -0.34 1.7 0 0 Z " fill="#C7B17E" transform="translate(51,24)"/>
<path d="M0 0 C0.33 0 0.66 0 1 0 C1.02505615 0.99443115 1.0501123 1.9888623 1.07592773 3.01342773 C1.16984882 6.69048747 1.27010619 10.3673515 1.37231445 14.04418945 C1.41572146 15.637893 1.45739219 17.2316448 1.49731445 18.82543945 C1.55487807 21.11163908 1.61861149 23.39759449 1.68359375 25.68359375 C1.70030624 26.40026718 1.71701874 27.11694061 1.73423767 27.85533142 C1.55018654 31.21527382 1.55018654 31.21527382 3 34 C3.33 23.77 3.66 13.54 4 3 C4.66 3.33 5.32 3.66 6 4 C6 15.22 6 26.44 6 38 C1 35 1 35 0 34 C-0.08847743 31.47905924 -0.11527301 28.98569107 -0.09765625 26.46484375 C-0.0962413 25.71159317 -0.09482635 24.95834259 -0.09336853 24.18226624 C-0.08775376 21.7673044 -0.07519883 19.35243399 -0.0625 16.9375 C-0.0574869 15.30403779 -0.05292366 13.67057414 -0.04882812 12.03710938 C-0.03777954 8.02470415 -0.02050506 4.01236759 0 0 Z " fill="#AF9560" transform="translate(68,68)"/>
<path d="M0 0 C0.67482422 0.50660156 0.67482422 0.50660156 1.36328125 1.0234375 C7.00576816 4.93586329 12.23639508 6.16698248 19 7 C19.33 7.99 19.66 8.98 20 10 C13.93897877 11.16967076 10.56596523 11.15054636 5 8 C2.0625 5.5 2.0625 5.5 0 3 C0 2.01 0 1.02 0 0 Z " fill="#F2CA83" transform="translate(11,71)"/>
<path d="M0 0 C0.66 0 1.32 0 2 0 C2.226875 1.258125 2.45375 2.51625 2.6875 3.8125 C3.46432358 6.86045362 3.79756199 7.81491382 6.1875 10 C9.59291486 11.21081417 12.41198575 11.21105966 16 11 C14.375 13.0625 14.375 13.0625 12 15 C7.85779457 15.08813203 6.32997263 14.28597628 3.1875 11.5625 C-0.25160414 7.53383515 -0.09718161 5.24780668 0 0 Z " fill="#DEC48C" transform="translate(18,103)"/>
<path d="M0 0 C3.17523532 4.76285297 3.61357668 9.31418944 3 15 C2.18422331 17.78881798 1.14841244 20.32037097 0 23 C-0.99 22.01 -1.98 21.02 -3 20 C-2.34 20 -1.68 20 -1 20 C-1.01160156 18.72382812 -1.02320312 17.44765625 -1.03515625 16.1328125 C-1.04453417 14.46354313 -1.05363437 12.79427217 -1.0625 11.125 C-1.07087891 10.28324219 -1.07925781 9.44148438 -1.08789062 8.57421875 C-1.09111328 7.76855469 -1.09433594 6.96289062 -1.09765625 6.1328125 C-1.10289307 5.38918457 -1.10812988 4.64555664 -1.11352539 3.87939453 C-1 2 -1 2 0 0 Z " fill="#CDB581" transform="translate(85,80)"/>
<path d="M0 0 C0.66 0 1.32 0 2 0 C2.33 0.99 2.66 1.98 3 3 C2.34 3 1.68 3 1 3 C1.33 3.99 1.66 4.98 2 6 C1.7215625 6.8971875 1.7215625 6.8971875 1.4375 7.8125 C0.81087688 10.94561562 1.89311381 13.04830349 3 16 C3.34976758 17.32911682 3.69096017 18.66082739 4 20 C1 20 1 20 -1 19 C-1.484375 16.015625 -1.484375 16.015625 -1.75 12.25 C-1.84796875 11.01765625 -1.9459375 9.7853125 -2.046875 8.515625 C-2.00121801 5.09135057 -1.5062413 3.03565554 0 0 Z " fill="#9A8864" transform="translate(8,51)"/>
<path d="M0 0 C1.3921875 0.2784375 1.3921875 0.2784375 2.8125 0.5625 C6.01343771 1.24123881 6.01343771 1.24123881 9 0 C8.83757812 0.51304688 8.67515625 1.02609375 8.5078125 1.5546875 C7.83890345 4.77574185 7.86813612 7.8371999 7.875 11.125 C7.87113281 12.98511719 7.87113281 12.98511719 7.8671875 14.8828125 C7.78331189 17.90723573 7.78331189 17.90723573 9 20 C8.01 19.67 7.02 19.34 6 19 C6 13.72 6 8.44 6 3 C4.35 3 2.7 3 1 3 C0.67 2.01 0.34 1.02 0 0 Z " fill="#A87B53" transform="translate(66,50)"/>
<path d="M0 0 C0.33 0.99 0.66 1.98 1 3 C-0.07421875 4.75390625 -0.07421875 4.75390625 -1.6875 6.5625 C-2.20699219 7.16191406 -2.72648437 7.76132813 -3.26171875 8.37890625 C-5.1109043 10.1034276 -6.64044319 11.09958204 -9 12 C-12.25 11.625 -12.25 11.625 -15 11 C-12.70264569 9.85132285 -10.42846589 8.756794 -8.0625 7.75 C-4.33162707 5.61807261 -2.57406639 3.40685258 0 0 Z " fill="#EAD08C" transform="translate(83,102)"/>
<path d="M0 0 C-3.13745022 3.36155381 -5.64382315 5.80495225 -10.359375 6.1953125 C-11.54273438 6.16050781 -11.54273438 6.16050781 -12.75 6.125 C-13.54921875 6.10695313 -14.3484375 6.08890625 -15.171875 6.0703125 C-15.77515625 6.04710937 -16.3784375 6.02390625 -17 6 C-13.55549263 3.70366176 -11.06187717 3.45983515 -7 3 C-7 2.01 -7 1.02 -7 0 C-3.86650268 -1.04449911 -3.01031744 -0.93423645 0 0 Z " fill="#DBB977" transform="translate(66,44)"/>
<path d="M0 0 C3.34373475 0.55728913 6.03312999 1.35173889 9 3 C5.5647952 5.29013653 4.014669 5.17842973 0 5 C-0.33 4.34 -0.66 3.68 -1 3 C-0.67 2.01 -0.34 1.02 0 0 Z " fill="#D8AE70" transform="translate(63,111)"/>
<path d="M0 0 C4.19394018 2.51636411 6.926633 4.50770483 9 9 C9 9.99 9 10.98 9 12 C8.34 12 7.68 12 7 12 C5.81640625 10.35546875 5.81640625 10.35546875 4.5625 8.1875 C2.94616437 5.40578131 1.36770973 3.18823319 -1 1 C-0.67 0.67 -0.34 0.34 0 0 Z " fill="#EAD38B" transform="translate(76,70)"/>
<path d="M0 0 C0.33 0.99 0.66 1.98 1 3 C-7.57142857 4.42857143 -7.57142857 4.42857143 -11 2 C-7.36576791 -0.32590854 -4.22911669 -0.16265833 0 0 Z " fill="#BD9F6C" transform="translate(30,78)"/>
<path d="M0 0 C0.33 0 0.66 0 1 0 C1 4.62 1 9.24 1 14 C-1.70879335 15.35439668 -4.00933268 15.06501451 -7 15 C-6.67 14.01 -6.34 13.02 -6 12 C-3.03 12.495 -3.03 12.495 0 13 C0 8.71 0 4.42 0 0 Z " fill="#B79D76" transform="translate(67,53)"/>
<path d="M0 0 C3.63 0 7.26 0 11 0 C9.375 2.0625 9.375 2.0625 7 4 C3.75 3.75 3.75 3.75 1 3 C0.67 2.01 0.34 1.02 0 0 Z " fill="#CDAF78" transform="translate(23,114)"/>
<path d="M0 0 C2.31 0 4.62 0 7 0 C6.67 0.99 6.34 1.98 6 3 C6.99 3.66 7.98 4.32 9 5 C6.36 5 3.72 5 1 5 C0.67 3.35 0.34 1.7 0 0 Z " fill="#CBA568" transform="translate(17,39)"/>
<path d="M0 0 C2.97 0 5.94 0 9 0 C5.71195019 2.91227269 3.40114397 4.49701212 -1 5 C-0.67 3.35 -0.34 1.7 0 0 Z " fill="#B19B6D" transform="translate(51,24)"/>
<path d="M0 0 C1.2065625 0.0309375 1.2065625 0.0309375 2.4375 0.0625 C2.1075 1.7125 1.7775 3.3625 1.4375 5.0625 C-0.5 4.75 -0.5 4.75 -2.5625 4.0625 C-2.8925 3.0725 -3.2225 2.0825 -3.5625 1.0625 C-2.5625 0.0625 -2.5625 0.0625 0 0 Z " fill="#F4BF76" transform="translate(60.5625,109.9375)"/>
<path d="M0 0 C1.98 0.66 3.96 1.32 6 2 C5.67 2.99 5.34 3.98 5 5 C3.68 5 2.36 5 1 5 C0.67 3.35 0.34 1.7 0 0 Z " fill="#F9C279" transform="translate(43,99)"/>
<path d="M0 0 C2.475 0.99 2.475 0.99 5 2 C4.01 2.495 4.01 2.495 3 3 C2.34786708 5.02463255 2.34786708 5.02463255 2 7 C0.68 5.68 -0.64 4.36 -2 3 C-1.34 2.01 -0.68 1.02 0 0 Z " fill="#EFC583" transform="translate(41,97)"/>
<path d="M0 0 C0.33 0.66 0.66 1.32 1 2 C2.98 2 4.96 2 7 2 C7 2.33 7 2.66 7 3 C6.38511719 3.12117188 5.77023438 3.24234375 5.13671875 3.3671875 C4.32847656 3.53476563 3.52023438 3.70234375 2.6875 3.875 C1.88699219 4.03742188 1.08648437 4.19984375 0.26171875 4.3671875 C-2.25301118 4.94478999 -2.25301118 4.94478999 -5 7 C-3.70700306 4.11562221 -2.34058637 2.12780579 0 0 Z " fill="#C2A976" transform="translate(24,95)"/>
<path d="M0 0 C0.33 0.66 0.66 1.32 1 2 C1.66 2.33 2.32 2.66 3 3 C0.29120665 4.35439668 -2.00933268 4.06501451 -5 4 C-4.67 3.01 -4.34 2.02 -4 1 C-1.9375 0.3125 -1.9375 0.3125 0 0 Z " fill="#F7CF87" transform="translate(30,93)"/>
<path d="M0 0 C3.125 0.375 3.125 0.375 6 1 C6 1.99 6 2.98 6 4 C3.36 3.34 0.72 2.68 -2 2 C-1.34 1.34 -0.68 0.68 0 0 Z " fill="#F0D18C" transform="translate(58,25)"/>
<path d="M0 0 C1.32 0.33 2.64 0.66 4 1 C3.67 2.32 3.34 3.64 3 5 C0.03 4.505 0.03 4.505 -3 4 C-2.01 2.68 -1.02 1.36 0 0 Z " fill="#FCC67A" transform="translate(24,39)"/>
<path d="M0 0 C4.8 3.44615385 4.8 3.44615385 5.8125 6.25 C5.874375 6.8275 5.93625 7.405 6 8 C1.3125 4.38671875 1.3125 4.38671875 0 3 C0 2.01 0 1.02 0 0 Z " fill="#F5D88F" transform="translate(11,71)"/>
<path d="M0 0 C0 0.99 0 1.98 0 3 C-1.98 3.99 -1.98 3.99 -4 5 C-2.68 3.35 -1.36 1.7 0 0 Z " fill="#000000" transform="translate(79,104)"/>
<path d="M0 0 C0.66 0.33 1.32 0.66 2 1 C0.35 2.32 -1.3 3.64 -3 5 C-1.125 1.125 -1.125 1.125 0 0 Z " fill="#000000" transform="translate(22,94)"/>
<path d="M0 0 C0.99 0.99 1.98 1.98 3 3 C2.01 2.67 1.02 2.34 0 2 C0 1.34 0 0.68 0 0 Z " fill="#000000" transform="translate(12,76)"/>
<path d="M0 0 C0.99 0.99 1.98 1.98 3 3 C2.01 2.67 1.02 2.34 0 2 C0 1.34 0 0.68 0 0 Z " fill="#000000" transform="translate(13,70)"/>
<path d="M0 0 C0 0.99 0 1.98 0 3 C-0.66 2.67 -1.32 2.34 -2 2 C-1.34 1.34 -0.68 0.68 0 0 Z " fill="#000000" transform="translate(64,39)"/>
<path d="M0 0 C0.99 0.33 1.98 0.66 3 1 C2.01 1 1.02 1 0 1 C0 0.67 0 0.34 0 0 Z " fill="#000000" transform="translate(49,100)"/>
<path d="M0 0 C0.99 0.495 0.99 0.495 2 1 C1.67 1.66 1.34 2.32 1 3 C0.67 2.01 0.34 1.02 0 0 Z " fill="#000000" transform="translate(46,84)"/>
<path d="M0 0 C0.99 0.495 0.99 0.495 2 1 C1.67 1.66 1.34 2.32 1 3 C0.67 2.01 0.34 1.02 0 0 Z " fill="#000000" transform="translate(83,74)"/>
<path d="M0 0 C0.99 0.33 1.98 0.66 3 1 C2.01 1 1.02 1 0 1 C0 0.67 0 0.34 0 0 Z " fill="#000000" transform="translate(76,68)"/>
<path d="M0 0 C0.66 0.33 1.32 0.66 2 1 C1.01 1 0.02 1 -1 1 C-0.67 0.67 -0.34 0.34 0 0 Z " fill="#000000" transform="translate(63,47)"/>
<path d="M0 0 C0.66 0 1.32 0 2 0 C1.67 0.66 1.34 1.32 1 2 C0.67 1.34 0.34 0.68 0 0 Z " fill="#000000" transform="translate(40,79)"/>
<path d="M0 0 C2 1 2 1 2 1 Z " fill="#000000" transform="translate(22,117)"/>
<path d="M0 0 C2 1 2 1 2 1 Z " fill="#000000" transform="translate(74,114)"/>
<path d="M0 0 C2 1 2 1 2 1 Z " fill="#000000" transform="translate(76,113)"/>
<path d="M0 0 C2 1 2 1 2 1 Z " fill="#000000" transform="translate(54,113)"/>
<path d="" fill="#000000" transform="translate(0,0)"/>
<path d="M0 0 C2 1 2 1 2 1 Z " fill="#000000" transform="translate(24,112)"/>
<path d="" fill="#000000" transform="translate(0,0)"/>
<path d="M0 0 C2 1 2 1 2 1 Z " fill="#000000" transform="translate(73,109)"/>
<path d="M0 0 C2 1 2 1 2 1 Z " fill="#000000" transform="translate(63,109)"/>
<path d="M0 0 C2 1 2 1 2 1 Z " fill="#000000" transform="translate(48,109)"/>
<path d="M0 0 C2 1 2 1 2 1 Z " fill="#000000" transform="translate(61,108)"/>
<path d="" fill="#000000" transform="translate(0,0)"/>
<path d="" fill="#000000" transform="translate(0,0)"/>
<path d="M0 0 C2 1 2 1 2 1 Z " fill="#000000" transform="translate(59,107)"/>
<path d="M0 0 C2 1 2 1 2 1 Z " fill="#000000" transform="translate(56,105)"/>
<path d="M0 0 C2 1 2 1 2 1 Z " fill="#000000" transform="translate(43,105)"/>
<path d="M0 0 C2 1 2 1 2 1 Z " fill="#000000" transform="translate(53,103)"/>
<path d="M0 0 C2 1 2 1 2 1 Z " fill="#000000" transform="translate(40,103)"/>
<path d="" fill="#000000" transform="translate(0,0)"/>
<path d="" fill="#000000" transform="translate(0,0)"/>
<path d="M0 0 C2 1 2 1 2 1 Z " fill="#000000" transform="translate(66,102)"/>
<path d="M0 0 C2 1 2 1 2 1 Z " fill="#000000" transform="translate(37,101)"/>
<path d="M0 0 C2 1 2 1 2 1 Z " fill="#000000" transform="translate(35,100)"/>
<path d="M0 0 C2 1 2 1 2 1 Z " fill="#000000" transform="translate(22,100)"/>
<path d="M0 0 C2 1 2 1 2 1 Z " fill="#000000" transform="translate(46,98)"/>
<path d="M0 0 C2 1 2 1 2 1 Z " fill="#000000" transform="translate(43,96)"/>
<path d="" fill="#000000" transform="translate(0,0)"/>
<path d="M0 0 C2 1 2 1 2 1 Z " fill="#000000" transform="translate(17,74)"/>
<path d="" fill="#000000" transform="translate(0,0)"/>
<path d="M0 0 C2 1 2 1 2 1 Z " fill="#000000" transform="translate(74,67)"/>
<path d="M0 0 C2 1 2 1 2 1 Z " fill="#000000" transform="translate(60,49)"/>
<path d="" fill="#000000" transform="translate(0,0)"/>
<path d="" fill="#000000" transform="translate(0,0)"/>
<path d="M0 0 C2 1 2 1 2 1 Z " fill="#000000" transform="translate(60,42)"/>
<path d="M0 0 C2 1 2 1 2 1 Z " fill="#000000" transform="translate(15,40)"/>
<path d="" fill="#000000" transform="translate(0,0)"/>
<path d="M0 0 C2 1 2 1 2 1 Z " fill="#000000" transform="translate(62,24)"/>
<path d="" fill="#000000" transform="translate(0,0)"/>
<path d="" fill="#000000" transform="translate(0,0)"/>
<path d="" fill="#000000" transform="translate(0,0)"/>
<path d="" fill="#000000" transform="translate(0,0)"/>
<path d="" fill="#000000" transform="translate(0,0)"/>
<path d="" fill="#000000" transform="translate(0,0)"/>
<path d="" fill="#000000" transform="translate(0,0)"/>
<path d="" fill="#000000" transform="translate(0,0)"/>
<path d="" fill="#000000" transform="translate(0,0)"/>
<path d="" fill="#000000" transform="translate(0,0)"/>
<path d="" fill="#000000" transform="translate(0,0)"/>
<path d="" fill="#000000" transform="translate(0,0)"/>
<path d="" fill="#000000" transform="translate(0,0)"/>
<path d="" fill="#000000" transform="translate(0,0)"/>
<path d="" fill="#000000" transform="translate(0,0)"/>
<path d="" fill="#000000" transform="translate(0,0)"/>
<path d="" fill="#000000" transform="translate(0,0)"/>
<path d="" fill="#000000" transform="translate(0,0)"/>
<path d="" fill="#000000" transform="translate(0,0)"/>
<path d="" fill="#000000" transform="translate(0,0)"/>
<path d="" fill="#000000" transform="translate(0,0)"/>
<path d="" fill="#000000" transform="translate(0,0)"/>
<path d="" fill="#000000" transform="translate(0,0)"/>
<path d="" fill="#000000" transform="translate(0,0)"/>
<path d="" fill="#000000" transform="translate(0,0)"/>
<path d="" fill="#000000" transform="translate(0,0)"/>
<path d="" fill="#000000" transform="translate(0,0)"/>
<path d="" fill="#000000" transform="translate(0,0)"/>
<path d="" fill="#000000" transform="translate(0,0)"/>
<path d="" fill="#000000" transform="translate(0,0)"/>
<path d="" fill="#000000" transform="translate(0,0)"/>
<path d="" fill="#000000" transform="translate(0,0)"/>
<path d="" fill="#000000" transform="translate(0,0)"/>
<path d="" fill="#000000" transform="translate(0,0)"/>
<path d="" fill="#000000" transform="translate(0,0)"/>
<path d="" fill="#000000" transform="translate(0,0)"/>
<path d="" fill="#000000" transform="translate(0,0)"/>
<path d="" fill="#000000" transform="translate(0,0)"/>
<path d="" fill="#000000" transform="translate(0,0)"/>
<path d="" fill="#000000" transform="translate(0,0)"/>
<path d="" fill="#000000" transform="translate(0,0)"/>
<path d="" fill="#000000" transform="translate(0,0)"/>
<path d="" fill="#000000" transform="translate(0,0)"/>
<path d="" fill="#000000" transform="translate(0,0)"/>
<path d="" fill="#000000" transform="translate(0,0)"/>
<path d="" fill="#000000" transform="translate(0,0)"/>
<path d="" fill="#000000" transform="translate(0,0)"/>
<path d="" fill="#000000" transform="translate(0,0)"/>
<path d="" fill="#000000" transform="translate(0,0)"/>
<path d="" fill="#000000" transform="translate(0,0)"/>
<path d="" fill="#000000" transform="translate(0,0)"/>
<path d="" fill="#000000" transform="translate(0,0)"/>
<path d="" fill="#000000" transform="translate(0,0)"/>
<path d="" fill="#000000" transform="translate(0,0)"/>
<path d="" fill="#000000" transform="translate(0,0)"/>
<path d="" fill="#000000" transform="translate(0,0)"/>
<path d="" fill="#000000" transform="translate(0,0)"/>
<path d="" fill="#000000" transform="translate(0,0)"/>
<path d="" fill="#000000" transform="translate(0,0)"/>
<path d="" fill="#000000" transform="translate(0,0)"/>
<path d="" fill="#000000" transform="translate(0,0)"/>
<path d="" fill="#000000" transform="translate(0,0)"/>
<path d="" fill="#000000" transform="translate(0,0)"/>
<path d="" fill="#000000" transform="translate(0,0)"/>
<path d="" fill="#000000" transform="translate(0,0)"/>
<path d="" fill="#000000" transform="translate(0,0)"/>
<path d="" fill="#000000" transform="translate(0,0)"/>
<path d="" fill="#000000" transform="translate(0,0)"/>
<path d="" fill="#000000" transform="translate(0,0)"/>
<path d="" fill="#000000" transform="translate(0,0)"/>
<path d="" fill="#000000" transform="translate(0,0)"/>
<path d="" fill="#000000" transform="translate(0,0)"/>
<path d="" fill="#000000" transform="translate(0,0)"/>
<path d="" fill="#000000" transform="translate(0,0)"/>
<path d="" fill="#000000" transform="translate(0,0)"/>
<path d="" fill="#000000" transform="translate(0,0)"/>
<path d="" fill="#000000" transform="translate(0,0)"/>
<path d="" fill="#000000" transform="translate(0,0)"/>
<path d="" fill="#000000" transform="translate(0,0)"/>
<path d="" fill="#000000" transform="translate(0,0)"/>
<path d="" fill="#000000" transform="translate(0,0)"/>
<path d="" fill="#000000" transform="translate(0,0)"/>
<path d="" fill="#000000" transform="translate(0,0)"/>
<path d="" fill="#000000" transform="translate(0,0)"/>
<path d="" fill="#000000" transform="translate(0,0)"/>
<path d="" fill="#000000" transform="translate(0,0)"/>
<path d="" fill="#000000" transform="translate(0,0)"/>
<path d="" fill="#000000" transform="translate(0,0)"/>
<path d="" fill="#000000" transform="translate(0,0)"/>
<path d="" fill="#000000" transform="translate(0,0)"/>
<path d="" fill="#000000" transform="translate(0,0)"/>
<path d="" fill="#000000" transform="translate(0,0)"/>
<path d="" fill="#000000" transform="translate(0,0)"/>
<path d="" fill="#000000" transform="translate(0,0)"/>
<path d="" fill="#000000" transform="translate(0,0)"/>
<path d="" fill="#000000" transform="translate(0,0)"/>
<path d="" fill="#000000" transform="translate(0,0)"/>
<path d="" fill="#000000" transform="translate(0,0)"/>
<path d="" fill="#000000" transform="translate(0,0)"/>
<path d="" fill="#000000" transform="translate(0,0)"/>
<path d="" fill="#000000" transform="translate(0,0)"/>
<path d="" fill="#000000" transform="translate(0,0)"/>
<path d="" fill="#000000" transform="translate(0,0)"/>
<path d="" fill="#000000" transform="translate(0,0)"/>
<path d="" fill="#000000" transform="translate(0,0)"/>
<path d="" fill="#000000" transform="translate(0,0)"/>
<path d="" fill="#000000" transform="translate(0,0)"/>
<path d="" fill="#000000" transform="translate(0,0)"/>
<path d="" fill="#000000" transform="translate(0,0)"/>
<path d="" fill="#000000" transform="translate(0,0)"/>
<path d="" fill="#000000" transform="translate(0,0)"/>
<path d="" fill="#000000" transform="translate(0,0)"/>
<path d="" fill="#000000" transform="translate(0,0)"/>
<path d="" fill="#000000" transform="translate(0,0)"/>
<path d="" fill="#000000" transform="translate(0,0)"/>
<path d="" fill="#000000" transform="translate(0,0)"/>
</svg>
